<?xml version="1.0" standalone="no"?>
<!DOCTYPE svg PUBLIC "-//W3C//DTD SVG 20010904//EN"
 "http://www.w3.org/TR/2001/REC-SVG-20010904/DTD/svg10.dtd">
<svg version="1.0" xmlns="http://www.w3.org/2000/svg"
 width="2200.000000pt" height="2200.000000pt" viewBox="0 0 2200.000000 2200.000000"
 preserveAspectRatio="xMidYMid meet">
<metadata>
Created by potrace 1.14, written by Peter Selinger 2001-2017
</metadata>
<g transform="translate(0.000000,2200.000000) scale(0.100000,-0.100000)"
fill="#000000" stroke="none">
<path d="M12428 20049 c-16 -4 -28 -5 -28 -2 0 11 -62 -41 -87 -74 -22 -28
-27 -45 -26 -91 0 -71 10 -88 119 -220 49 -59 96 -115 104 -126 8 -10 24 -29
35 -42 11 -13 30 -36 42 -52 12 -16 34 -40 47 -55 14 -15 37 -43 53 -64 15
-21 35 -45 43 -53 8 -9 24 -28 35 -41 112 -136 211 -255 215 -259 4 -4 90
-109 150 -184 8 -10 20 -23 25 -30 6 -6 42 -49 81 -96 38 -47 148 -179 244
-295 96 -115 178 -214 182 -220 5 -5 18 -22 31 -36 12 -14 34 -41 49 -61 15
-19 37 -46 50 -60 13 -14 30 -34 38 -44 28 -35 105 -129 110 -134 6 -6 138
-166 158 -191 10 -13 10 -33 3 -85 -6 -38 -13 -91 -16 -119 -3 -27 -8 -63 -10
-80 -14 -100 -45 -345 -47 -372 -1 -18 -4 -33 -6 -33 -2 0 -528 523 -1168
1163 -1652 1649 -1550 1549 -1614 1580 -61 29 -47 28 -835 52 -93 3 -233 7
-310 10 -175 6 -421 14 -630 20 -88 3 -225 7 -305 10 -80 3 -215 7 -300 10
-348 11 -511 16 -635 20 -71 2 -209 7 -305 10 -96 3 -233 7 -305 10 -71 2
-213 7 -315 10 -102 3 -241 8 -310 10 -69 2 -206 7 -305 10 -99 3 -232 7 -295
10 -246 9 -580 19 -690 19 -96 0 -122 -3 -160 -20 -58 -27 -87 -54 -95 -87 -4
-15 -11 -29 -15 -32 -11 -7 0 -85 17 -119 31 -60 49 -71 358 -216 44 -21 148
-70 230 -110 83 -40 186 -89 230 -110 80 -38 197 -93 440 -210 348 -167 527
-250 535 -250 4 0 13 -7 20 -15 7 -9 15 -14 17 -11 2 2 62 -25 134 -60 71 -35
131 -64 133 -64 2 0 86 -40 187 -88 101 -49 213 -103 249 -120 36 -16 124 -58
195 -92 72 -34 171 -82 220 -105 390 -184 495 -236 491 -244 -2 -3 -7 -58 -10
-121 -4 -63 -9 -128 -11 -145 -2 -16 -7 -70 -10 -120 -14 -211 -16 -242 -20
-280 -2 -22 -7 -87 -11 -145 -4 -60 -11 -108 -18 -112 -6 -3 -22 -16 -35 -27
l-24 -21 -36 22 c-20 12 -48 30 -63 40 -14 10 -29 18 -33 18 -3 0 -26 14 -50
30 -24 17 -48 30 -54 30 -6 0 -11 5 -11 10 0 6 -4 10 -9 10 -4 0 -53 27 -107
61 -54 33 -106 65 -114 70 -8 5 -59 36 -113 69 -54 33 -100 60 -103 60 -2 0
-35 20 -74 45 -39 25 -74 45 -80 45 -5 0 -13 8 -19 18 -5 9 -11 15 -13 12 -3
-4 -197 110 -313 184 -27 18 -57 35 -65 39 -8 4 -27 15 -42 25 -47 30 -452
275 -473 286 -11 6 -22 13 -25 17 -5 5 -555 339 -575 349 -5 3 -29 18 -53 33
-85 55 -110 67 -182 84 -54 13 -99 8 -220 -24 -74 -19 -143 -36 -152 -38 -9
-2 -51 -13 -93 -25 -42 -12 -85 -23 -96 -25 -10 -2 -63 -16 -116 -30 -54 -15
-105 -28 -114 -30 -10 -2 -77 -19 -150 -39 -74 -19 -188 -49 -254 -66 -66 -17
-154 -41 -195 -52 -41 -11 -82 -21 -90 -23 -8 -2 -35 -9 -60 -16 -25 -7 -50
-13 -56 -15 -6 -1 -76 -19 -155 -39 -79 -21 -148 -38 -154 -39 -5 -2 -28 -8
-50 -14 -34 -10 -633 -166 -675 -176 -8 -2 -127 -33 -265 -69 -137 -36 -263
-68 -280 -73 -16 -4 -32 -8 -35 -9 -3 -1 -25 -7 -50 -13 -140 -38 -198 -53
-220 -57 -14 -3 -83 -21 -155 -40 -196 -53 -765 -202 -802 -210 -10 -2 -63
-16 -118 -30 -55 -15 -108 -28 -117 -30 -65 -13 -132 -72 -154 -137 -15 -45
-2 -111 31 -154 43 -56 89 -72 355 -120 14 -2 36 -7 50 -10 14 -4 34 -8 45
-10 11 -1 70 -12 130 -24 97 -19 435 -86 475 -95 8 -1 35 -6 60 -10 25 -4 52
-9 60 -11 28 -5 215 -43 425 -84 116 -23 219 -43 230 -46 11 -2 31 -6 45 -8
14 -3 95 -19 180 -35 85 -17 166 -32 180 -35 32 -6 239 -47 265 -52 11 -2 31
-6 45 -9 14 -3 36 -7 50 -10 14 -3 78 -15 142 -27 65 -12 121 -24 127 -27 5
-3 12 -67 15 -141 4 -74 9 -164 11 -200 2 -36 7 -123 10 -195 3 -71 8 -164 10
-205 3 -41 7 -127 10 -190 3 -63 7 -149 10 -190 3 -41 7 -122 10 -180 2 -58 7
-160 11 -227 3 -68 2 -123 -2 -124 -42 -5 -75 -7 -184 -13 -69 -4 -141 -9
-160 -11 -19 -2 -87 -7 -150 -10 -63 -4 -135 -8 -160 -10 -44 -3 -159 -11
-315 -20 -44 -3 -109 -7 -145 -10 -36 -2 -108 -7 -160 -11 -164 -10 -199 -29
-288 -154 -26 -36 -52 -72 -59 -80 -6 -8 -63 -85 -124 -170 -62 -85 -116 -157
-119 -160 -3 -3 -14 -18 -23 -33 -10 -16 -25 -36 -32 -45 -8 -9 -36 -47 -62
-84 -99 -137 -307 -423 -313 -428 -3 -3 -30 -39 -59 -80 -30 -41 -69 -95 -87
-120 -18 -25 -87 -119 -154 -210 -66 -91 -128 -176 -137 -189 -10 -13 -53 -71
-95 -130 -42 -58 -84 -114 -93 -124 -8 -10 -23 -30 -33 -45 -9 -15 -44 -64
-76 -107 -111 -149 -121 -163 -136 -185 -8 -12 -29 -41 -46 -64 -62 -83 -230
-312 -247 -336 -10 -14 -31 -43 -47 -65 -117 -156 -135 -250 -64 -334 22 -27
99 -65 127 -64 64 3 90 18 234 133 7 6 14 10 17 10 2 0 40 24 83 54 81 56 460
296 468 296 2 0 46 26 97 58 51 32 100 61 108 65 8 4 44 25 80 48 36 23 112
68 168 101 l104 60 116 -7 c65 -4 125 -9 134 -11 9 -1 46 -4 82 -6 37 -1 67
-6 67 -10 1 -5 2 -11 3 -15 1 -5 6 -39 10 -78 5 -38 10 -77 11 -86 2 -9 6 -40
10 -70 3 -30 10 -88 15 -129 8 -68 14 -132 25 -274 4 -51 0 -59 -134 -306 -82
-150 -151 -297 -164 -347 -24 -90 -16 -149 72 -518 10 -44 35 -143 56 -220 20
-77 38 -147 40 -155 24 -103 25 -114 14 -173 -13 -74 -14 -80 -30 -226 -11
-108 -8 -587 5 -651 2 -14 7 -55 11 -92 3 -37 8 -77 10 -90 2 -13 9 -57 15
-98 6 -41 15 -91 20 -110 5 -19 11 -51 14 -70 7 -43 69 -290 98 -385 54 -179
74 -239 123 -365 107 -272 235 -501 377 -677 32 -40 58 -75 58 -77 0 -3 18
-24 40 -47 22 -23 40 -45 41 -48 0 -3 2 -46 4 -96 3 -97 13 -234 20 -275 2
-14 7 -52 10 -85 3 -33 7 -67 10 -75 2 -8 6 -37 10 -65 5 -39 38 -212 60 -315
4 -17 35 -147 41 -170 2 -8 8 -35 15 -60 16 -67 17 -70 34 -135 9 -33 25 -89
36 -125 11 -36 22 -72 24 -80 2 -8 16 -53 30 -100 15 -47 28 -89 29 -95 5 -22
118 -373 131 -408 8 -20 12 -37 9 -37 -4 0 -2 -6 3 -12 6 -7 18 -38 28 -68 22
-68 137 -382 158 -430 9 -19 25 -57 37 -85 13 -27 24 -54 25 -60 2 -9 16 -44
50 -120 43 -97 69 -154 82 -185 91 -205 251 -507 372 -703 36 -59 71 -116 76
-125 20 -35 130 -176 179 -230 42 -45 105 -100 211 -180 18 -13 97 -58 190
-107 50 -26 123 -65 163 -86 39 -22 72 -37 72 -34 0 3 10 -1 23 -9 12 -8 60
-29 107 -46 47 -17 95 -35 107 -40 68 -28 336 -96 413 -106 19 -2 49 -7 65
-11 17 -3 39 -7 50 -9 11 -1 56 -7 100 -13 197 -26 461 -33 600 -15 166 22
190 26 265 44 228 55 410 155 555 305 72 73 184 217 194 248 2 7 7 14 11 17 6
5 57 88 106 175 15 28 103 199 194 380 166 329 267 516 326 603 1 2 60 -17
131 -41 199 -69 463 -137 633 -162 24 -4 47 -8 51 -10 3 -2 34 -7 70 -11 35
-3 67 -8 70 -10 3 -1 39 -6 80 -10 41 -3 83 -8 93 -10 119 -22 646 -22 816 1
19 2 57 7 84 11 27 3 58 8 70 10 12 2 37 6 56 9 19 2 49 9 66 14 28 8 36 5 71
-28 22 -20 78 -70 123 -111 46 -41 88 -80 94 -85 24 -22 224 -193 271 -231 93
-77 269 -206 395 -289 160 -106 369 -235 381 -235 5 0 9 -4 9 -10 0 -5 6 -10
14 -10 8 0 22 -7 30 -16 9 -8 16 -12 16 -8 0 4 8 1 18 -7 18 -15 18 -15 137
-79 92 -50 372 -190 380 -190 3 0 40 -16 82 -36 43 -20 112 -49 153 -66 41
-16 89 -36 105 -43 35 -15 223 -84 310 -113 112 -38 300 -90 410 -113 33 -7
65 -14 70 -15 115 -26 405 -64 625 -81 210 -16 745 -8 851 12 13 3 44 8 69 11
77 10 281 52 380 79 339 91 806 294 985 427 215 160 320 284 389 458 77 193
106 631 57 852 -6 24 -12 54 -15 68 -13 64 -53 194 -86 275 -60 149 -88 212
-165 366 -40 80 -51 109 -40 110 34 3 52 6 90 12 22 4 58 10 80 12 135 17 345
71 442 115 53 24 268 160 283 179 3 4 30 24 60 46 30 22 60 44 66 50 6 5 26
21 44 35 18 14 41 32 52 42 10 9 37 31 60 50 23 18 53 44 69 58 15 14 58 52
95 85 135 118 445 436 600 615 21 25 49 56 61 70 13 14 34 39 49 55 126 143
265 331 390 525 158 245 215 342 316 540 228 447 396 908 521 1430 41 169 49
208 52 235 1 11 5 38 10 59 9 45 12 68 14 111 1 22 18 48 67 100 36 39 101
108 144 155 43 47 98 106 122 131 23 25 69 75 102 110 49 54 123 134 286 309
286 308 287 309 304 345 22 48 26 105 9 155 -13 39 -30 65 -90 140 -70 87
-193 244 -213 270 -14 18 -38 50 -55 70 -16 20 -41 51 -55 69 -14 18 -29 38
-35 44 -66 77 -125 160 -125 175 0 18 31 169 100 482 10 48 14 65 30 145 6 28
12 59 14 70 3 11 17 74 31 140 15 66 29 131 31 145 3 14 16 75 30 135 13 61
27 126 30 145 2 19 11 60 19 90 7 30 16 69 19 85 3 17 7 41 11 55 3 14 10 48
16 75 5 28 30 145 55 260 25 116 48 221 50 235 3 14 9 43 14 65 5 22 10 50 10
61 0 23 -61 120 -104 167 -13 15 -37 44 -53 64 -15 21 -30 40 -33 43 -3 3 -34
43 -70 90 -70 92 -159 209 -172 225 -9 11 -100 129 -121 157 -7 10 -69 90
-138 179 -128 166 -235 305 -268 349 -56 73 -182 236 -189 246 -5 6 -31 39
-58 75 -26 35 -59 78 -73 95 -14 18 -36 45 -48 60 -45 61 -245 321 -271 353
-15 18 -31 41 -36 50 -5 9 -12 18 -16 21 -3 3 -44 55 -90 115 -46 61 -87 112
-90 115 -3 3 -39 50 -80 105 -65 88 -96 127 -143 184 -6 8 -28 38 -49 65 -21
28 -46 62 -57 76 -11 14 -63 81 -115 150 -53 69 -104 135 -114 147 -82 104
-299 388 -307 401 -5 9 -13 19 -16 22 -3 3 -22 26 -41 51 -19 26 -40 53 -47
60 -6 8 -55 70 -107 139 -52 69 -103 134 -112 145 -10 11 -28 36 -42 55 -35
49 -59 78 -105 122 -43 42 -91 67 -1230 623 -115 56 -322 158 -460 225 -379
185 -644 315 -920 449 -137 67 -257 126 -265 131 -8 6 -24 14 -36 19 -32 14
-308 148 -672 327 -183 90 -337 164 -341 164 -5 0 -14 7 -21 15 -7 9 -15 14
-17 11 -2 -2 -91 39 -196 91 -106 52 -264 130 -352 173 -88 43 -290 142 -450
220 -580 284 -581 285 -637 269z"/>
<path d="M1897 5643 c-14 -14 -6 -46 22 -86 40 -58 236 -242 314 -296 12 -8
24 -17 27 -20 3 -4 23 -19 45 -36 22 -16 45 -34 52 -40 27 -23 40 -32 88 -65
28 -18 52 -36 55 -40 21 -25 552 -361 775 -490 17 -10 89 -52 160 -95 186
-111 257 -145 299 -145 20 0 36 3 36 8 0 23 -60 88 -126 137 -100 74 -895 641
-972 693 -33 23 -66 47 -74 54 -7 7 -36 28 -63 47 -28 19 -72 50 -100 70 -81
57 -336 224 -390 256 -86 51 -131 66 -148 48z"/>
<path d="M2946 5475 c-11 -12 -13 -22 -6 -40 5 -14 7 -25 4 -25 -5 0 21 -26
69 -67 81 -69 615 -355 689 -368 46 -9 58 10 33 49 -15 23 -133 106 -258 182
-27 16 -59 36 -72 44 -122 78 -383 222 -421 234 -14 4 -28 1 -38 -9z"/>
<path d="M18490 5199 c-44 -27 -173 -133 -277 -226 -43 -39 -88 -80 -100 -90
-12 -11 -48 -43 -80 -73 -33 -30 -92 -84 -132 -120 -40 -36 -83 -74 -96 -85
-34 -31 -74 -65 -150 -129 -38 -32 -72 -61 -75 -65 -3 -3 -26 -23 -52 -44 -26
-21 -80 -71 -120 -111 -210 -208 -242 -254 -203 -283 11 -7 22 -13 27 -13 18
0 523 350 548 380 3 3 25 21 49 40 25 19 54 44 66 55 12 11 59 54 105 95 187
168 437 427 510 528 43 60 74 127 67 146 -9 22 -45 20 -87 -5z"/>
<path d="M18171 4295 c-24 -14 -65 -43 -91 -65 -26 -22 -54 -40 -62 -40 -16 0
-122 -108 -203 -205 -46 -55 -79 -92 -169 -187 -34 -38 -53 -74 -42 -85 8 -8
62 16 89 41 12 11 38 34 57 50 19 15 61 52 92 82 32 30 60 54 62 54 5 0 184
170 255 242 73 73 92 99 89 118 -5 24 -30 22 -77 -5z"/>
<path d="M2786 4175 c-40 -40 32 -118 224 -242 36 -24 70 -46 75 -50 17 -14
186 -113 192 -113 3 0 17 -8 31 -19 15 -10 68 -40 117 -66 134 -72 169 -91
212 -118 108 -68 398 -188 451 -186 15 0 43 -4 62 -9 42 -11 80 1 80 23 0 28
-50 69 -180 146 -69 41 -132 78 -140 82 -8 4 -32 18 -52 30 -507 301 -807 459
-978 517 -71 24 -74 24 -94 5z"/>
<path d="M17855 3504 c-225 -150 -377 -274 -334 -274 42 0 459 296 459 325 0
26 -23 17 -125 -51z"/>
</g>
</svg>
